<?xml version="1.0" encoding="UTF-8"?>
<svg version="1.1" xmlns="http://www.w3.org/2000/svg" width="1024" height="1024">
<path d="M0 0 C337.92 0 675.84 0 1024 0 C1024 337.92 1024 675.84 1024 1024 C686.08 1024 348.16 1024 0 1024 C0 686.08 0 348.16 0 0 Z " fill="#7DB485" transform="translate(0,0)"/>
<path d="M0 0 C337.92 0 675.84 0 1024 0 C1024 337.92 1024 675.84 1024 1024 C686.08 1024 348.16 1024 0 1024 C0 686.08 0 348.16 0 0 Z M463 40 C462.27250549 40.07150269 461.54501099 40.14300537 460.79547119 40.2166748 C457.02387159 40.59632407 453.2615192 41.03173974 449.5 41.5 C448.49582031 41.61730469 447.49164063 41.73460937 446.45703125 41.85546875 C441.34705547 42.47668149 436.37328837 43.28439513 431.36376953 44.46435547 C428.63223904 45.08333687 425.8904999 45.60237484 423.13671875 46.11328125 C403.94898891 49.67387561 385.36562524 53.90578738 366.92919922 60.33300781 C364.31811112 61.23575303 361.690252 62.08466509 359.0625 62.9375 C353.84153728 64.68024138 348.66844362 66.54583847 343.5 68.4375 C342.74082275 68.71392334 341.98164551 68.99034668 341.19946289 69.27514648 C330.44201648 73.24347948 320.0082684 77.82387385 309.6875 82.8125 C308.59010498 83.34238525 307.49270996 83.87227051 306.36206055 84.41821289 C286.18877532 94.2092626 266.37745573 105.10718806 248 118 C246.93394531 118.7425 245.86789063 119.485 244.76953125 120.25 C227.62028172 132.29341128 211.06796459 145.1330464 195.72729492 159.41625977 C194.43324898 160.60275814 193.12657045 161.775504 191.8137207 162.94116211 C185.60728951 168.45366823 179.65840091 174.18617809 173.8034668 180.06616211 C172.30695075 181.56806925 170.805117 183.06451062 169.30273438 184.56054688 C163.99123001 189.86800434 158.86116893 195.27306893 154 201 C153.00386324 202.14172474 152.00649896 203.28237985 151.0078125 204.421875 C145.16072121 211.15171549 139.57605231 217.98668095 134.32226562 225.19628906 C132.75375691 227.33590176 131.16614504 229.46076751 129.578125 231.5859375 C121.26613098 242.72185238 121.26613098 242.72185238 113.640625 254.33203125 C112.38602077 256.3722567 111.10772491 258.38303888 109.796875 260.38671875 C105.1910329 267.42835196 100.90275471 274.54120456 97 282 C96.16847871 283.56146959 95.33639459 285.12263952 94.50390625 286.68359375 C87.14507555 300.54138474 80.11303263 314.5432738 74 329 C73.58878906 329.95261719 73.17757812 330.90523438 72.75390625 331.88671875 C69.80254386 338.82483952 67.309422 345.82624427 65 353 C63.56292432 357.35730355 62.10559814 361.70695647 60.60546875 366.04296875 C53.82674433 385.76030779 48.28684302 405.8296203 45.53125 426.51953125 C45.00604631 429.96038778 44.2873593 433.29791819 43.5 436.6875 C40.70386992 449.32657284 39.8867747 462.30542565 39.34130859 475.21386719 C39.09872198 480.63039093 39.09872198 480.63039093 38.4927063 482.89927673 C37.90368735 485.41064266 37.87282776 487.69185447 37.87060547 490.27172852 C37.86745331 491.32284317 37.86430115 492.37395782 37.86105347 493.45692444 C37.8630777 494.58617844 37.86510193 495.71543243 37.8671875 496.87890625 C37.86623077 498.04252182 37.86527405 499.20613739 37.86428833 500.40501404 C37.86360807 502.86367853 37.86545161 505.32234482 37.86962891 507.78100586 C37.87498411 511.55131038 37.86967618 515.32149604 37.86328125 519.09179688 C37.86394196 521.47916693 37.86522299 523.86653691 37.8671875 526.25390625 C37.86516327 527.38518448 37.86313904 528.51646271 37.86105347 529.68202209 C37.86420563 530.72998459 37.86735779 531.77794708 37.87060547 532.85766602 C37.87140106 533.78047867 37.87219666 534.70329132 37.87301636 535.65406799 C37.90466447 538.15480843 37.90466447 538.15480843 39 541 C39.15980373 543.73146009 39.27830635 546.45380842 39.375 549.1875 C40.45786963 573.52605897 45.01579577 597.38513434 50.34863281 621.09765625 C50.79883576 623.10365799 51.24034179 625.11162425 51.67480469 627.12109375 C53.43298629 635.07488664 55.7036273 642.76548152 58.25 650.5 C58.83672485 652.30355957 58.83672485 652.30355957 59.43530273 654.14355469 C62.90349092 664.77998959 66.43121481 675.39692116 70 686 C70.66 686 71.32 686 72 686 C72.11472656 686.85207031 72.22945312 687.70414063 72.34765625 688.58203125 C74.7515101 701.17707387 81.89856299 712.82847513 87.92236328 723.98242188 C89.16939084 726.31713771 90.34599255 728.68056291 91.5 731.0625 C92.32723802 732.71140541 93.16132524 734.3568821 94 736 C94.57621094 737.134375 95.15242188 738.26875 95.74609375 739.4375 C101.48414753 750.36974803 108.21983464 760.61463297 115.0625 770.875 C115.53299774 771.58206085 116.00349548 772.2891217 116.48825073 773.01760864 C124.7818031 785.45532343 133.57080706 797.39202267 143 809 C143.67417969 809.83789062 144.34835938 810.67578125 145.04296875 811.5390625 C147.34107154 814.37715666 149.66756627 817.19006015 152 820 C153.24330078 821.52560547 153.24330078 821.52560547 154.51171875 823.08203125 C162.05111367 832.16045858 170.30455926 840.52041167 178.625 848.875 C179.20159363 849.45677002 179.77818726 850.03854004 180.37225342 850.63793945 C186.88484816 857.19654897 193.44717485 863.42773534 200.72216797 869.14477539 C202.80843538 870.84397647 204.65762107 872.60591683 206.5 874.5625 C209.98026948 878.15822866 213.89628654 880.94279335 217.97265625 883.828125 C221.23118508 886.16585665 224.39815123 888.6000495 227.5625 891.0625 C232.92998485 895.21643252 238.38760372 899.18388987 244 903 C244.89501221 903.6202002 244.89501221 903.6202002 245.80810547 904.25292969 C247.80381532 905.6355266 249.8073223 907.00617862 251.8125 908.375 C252.44720215 908.81650391 253.0819043 909.25800781 253.73583984 909.71289062 C257.12146458 912.00161234 259.90069701 913.57835741 264 914 C264.33 914.99 264.66 915.98 265 917 C266.62360196 918.09691084 266.62360196 918.09691084 268.625 918.9375 C271.4645554 920.26024253 274.1820312 921.64892821 276.875 923.25 C279.69389581 925.16286779 279.69389581 925.16286779 282 925 C282 925.66 282 926.32 282 927 C286.99180204 929.68226163 291.99159453 932.34887029 297 935 C297.93585938 935.49628906 298.87171875 935.99257813 299.8359375 936.50390625 C303.90374113 938.60363013 307.92220753 940.37788574 312.25 941.875 C316.49292785 943.34552687 320.35855511 945.16214627 324.33203125 947.25 C332.12821568 951.23933465 340.19229573 954.20998053 348.4375 957.125 C349.83686009 957.62815167 351.2359495 958.13205678 352.63476562 958.63671875 C371.57782212 965.47940098 371.57782212 965.47940098 390.9765625 970.83203125 C391.73743164 971.00943848 392.49830078 971.1868457 393.28222656 971.36962891 C394.62752441 971.6816626 394.62752441 971.6816626 396 972 C397.13663086 972.26603027 398.27326172 972.53206055 399.44433594 972.80615234 C423.55790391 978.4301916 447.31584611 982.64852011 472 985 C473.02504639 985.09933838 474.05009277 985.19867676 475.10620117 985.30102539 C486.6569377 986.27688603 498.22861832 986.19829294 509.8125 986.1875 C510.90537323 986.18722809 511.99824646 986.18695618 513.12423706 986.18667603 C528.84738639 986.16865696 544.3724496 985.87025131 560 984 C560.99596191 983.8875293 561.99192383 983.77505859 563.01806641 983.65917969 C569.12000393 982.96731546 575.20845742 982.20377937 581.29248047 981.36914062 C583.71554302 981.03878259 586.14031938 980.72896101 588.56640625 980.421875 C611.02743237 977.39663516 633.58889395 971.33036362 655 964 C659.85586156 962.36468876 664.72169201 960.76539462 669.6015625 959.203125 C680.26750565 955.76431576 690.56817807 952.22808066 700.59375 947.19042969 C703.69205004 945.65762622 706.81481439 944.17753779 709.9375 942.6953125 C711.8742509 941.77270271 713.81059231 940.84924022 715.74673462 939.925354 C717.01733702 939.3195327 718.28845661 938.71479461 719.56015015 938.11126709 C727.02566763 934.56162107 734.29033898 930.80231952 741.38378906 926.54760742 C743.90708862 925.05496129 746.46441189 923.66979836 749.0625 922.3125 C769.93830968 910.97735406 789.57612203 896.94767458 808 882 C809.45986328 880.83017578 809.45986328 880.83017578 810.94921875 879.63671875 C816.24280559 875.36198126 821.37880586 870.9518149 826.40209961 866.36254883 C828.01232219 864.89820112 829.62987261 863.44181523 831.25878906 861.99829102 C837.44538372 856.51175839 843.36436984 850.79095373 849.1965332 844.93383789 C850.69304925 843.43193075 852.194883 841.93548938 853.69726562 840.43945312 C859.00825475 835.13245533 864.14599946 829.73261071 869 824 C869.87696459 822.99032955 870.75452926 821.98117985 871.6328125 820.97265625 C878.58082225 812.85938468 885.10750321 804.47148574 891.53222656 795.93945312 C892.79758873 794.26745761 894.08073829 792.60895072 895.3671875 790.953125 C901.96400642 782.39900816 907.74831376 773.33777255 913.56396484 764.2421875 C914.759822 762.37500761 915.96646102 760.51473854 917.17578125 758.65625 C924.0103302 748.10891946 929.60475456 736.93166291 935.1875 725.6875 C935.80905364 724.43935792 936.43079763 723.19131061 937.05273438 721.94335938 C938.19282343 719.6551192 939.33160889 717.3662487 940.46948242 715.0769043 C941.51465726 712.97571775 942.5653643 710.87727627 943.62084961 708.78125 C945.00115976 705.99766119 946.20505705 703.19024558 947.375 700.3125 C948.96214889 696.44175182 950.62993375 692.64705946 952.4375 688.875 C955.66403017 681.87230991 957.93161388 674.53702096 960.28369141 667.20629883 C960.99120318 665.02709504 961.72880593 662.85977894 962.46875 660.69140625 C964.66999557 654.10334184 966.45529123 647.39577837 968.30224609 640.7019043 C970.99793282 630.9450434 970.99793282 630.9450434 972.390625 626.421875 C978.81542992 605.27978439 981.40995896 582.87147652 983.69140625 560.94775391 C983.89028955 559.04797781 984.09795512 557.14909044 984.31640625 555.25146484 C989.02237245 513.94767604 986.58388864 471.76829302 979 431 C978.72776031 429.50913362 978.45561748 428.01824955 978.18359375 426.52734375 C977.70274287 423.91386177 977.20677377 421.30464177 976.703125 418.6953125 C976.23125538 416.2153755 975.78361462 413.73071502 975.359375 411.2421875 C972.20375379 393.07901888 966.67219044 375.65274856 960.875 358.1875 C960.48563766 357.00988098 960.48563766 357.00988098 960.08840942 355.80847168 C957.40417533 347.71500775 954.72215913 339.68844451 951 332 C950.44699219 330.81277344 949.89398437 329.62554687 949.32421875 328.40234375 C948.78410156 327.25894531 948.24398437 326.11554688 947.6875 324.9375 C945.47417465 320.24371349 943.35169376 315.52395238 941.31762695 310.74975586 C938.74150232 304.71354927 936.02317035 299.07086961 932.50390625 293.51171875 C930.78819935 290.64626541 929.37571638 287.70174712 927.9375 284.6875 C911.64601796 251.56148651 887.79880302 221.16865451 863 194 C862.18273437 193.08992187 861.36546875 192.17984375 860.5234375 191.2421875 C851.17580633 180.90188754 841.5341921 170.59892954 830.875 161.59375 C828.59616622 159.65674129 826.39675343 157.64094375 824.1875 155.625 C802.93906129 136.48197061 779.13204056 119.69299443 754.6875 104.875 C754.0466748 104.48417236 753.40584961 104.09334473 752.74560547 103.69067383 C749.593595 101.65763105 749.593595 101.65763105 746 101 C746 100.34 746 99.68 746 99 C745.01902344 98.5153125 744.03804687 98.030625 743.02734375 97.53125 C741.66380827 96.85467879 740.30054861 96.17755154 738.9375 95.5 C738.21522217 95.14123779 737.49294434 94.78247559 736.7487793 94.4128418 C732.51031497 92.29476402 728.32312714 90.10717903 724.16870117 87.82910156 C717.89000688 84.39039539 711.63901112 81.53478373 704.8984375 79.0703125 C702.46116962 78.17029714 700.11222151 77.2020282 697.75 76.125 C668.11809639 62.69549506 637.19994712 53.52659567 605.36328125 47.11328125 C602.22047986 46.47897695 599.12232916 45.78822307 596.02734375 44.953125 C590.84671962 43.61967624 585.55237083 43.07581088 580.25 42.4375 C578.21327845 42.18834021 576.17680751 41.93712104 574.140625 41.68359375 C572.80306152 41.52201782 572.80306152 41.52201782 571.43847656 41.35717773 C569 41 569 41 567.12741089 40.51057434 C551.63968945 36.7935523 534.37812476 37.68085577 518.56689453 37.73925781 C515.13425966 37.7499711 511.70215039 37.73928859 508.26953125 37.7265625 C493.09348044 37.71680978 478.10144193 38.51203728 463 40 Z " fill="#FDFDFD" transform="translate(0,0)"/>
<path d="M0 0 C1.59840914 -0.00218425 3.1968165 -0.00656924 4.79521441 -0.01294583 C9.15794126 -0.02405959 13.52004757 -0.00421879 17.88269544 0.02094448 C22.59827383 0.04262716 27.31381995 0.03522355 32.0294342 0.03143311 C40.18972245 0.02881704 48.34981011 0.04444483 56.51004791 0.0726223 C68.30820685 0.11333497 80.10626923 0.12628747 91.9044908 0.13256226 C111.04834094 0.14349326 130.19208428 0.17673504 149.33587646 0.22407532 C167.9273424 0.27000183 186.51877928 0.30537861 205.11029053 0.32661438 C206.83055145 0.32858481 206.83055145 0.32858481 208.58556512 0.33059504 C214.33918476 0.33712044 220.0928046 0.34343893 225.84642458 0.34965456 C273.54464249 0.40145037 321.24274449 0.48948312 368.94085693 0.60127258 C368.99491699 1.3590802 369.04897705 2.11688782 369.10467529 2.8976593 C369.18338867 3.89039856 369.26210205 4.88313782 369.34320068 5.90596008 C369.41788574 6.8906427 369.4925708 7.87532532 369.56951904 8.8898468 C370.07922279 12.61158896 370.95377296 14.30351568 373.94085693 16.60127258 C376.67611656 17.28639497 379.0969881 17.45907914 381.94085693 17.60127258 C381.94085693 16.94127258 381.94085693 16.28127258 381.94085693 15.60127258 C382.60085693 15.60127258 383.26085693 15.60127258 383.94085693 15.60127258 C384.99500874 12.43881717 385.25361366 9.7317904 385.50335693 6.41377258 C385.587146 5.3270929 385.67093506 4.24041321 385.75726318 3.12080383 C385.81784912 2.28935852 385.87843506 1.45791321 385.94085693 0.60127258 C396.65118899 0.48483182 407.36136763 0.39628194 418.0722065 0.34221172 C423.04704456 0.31624552 428.0214459 0.28108799 432.99603271 0.22407532 C437.8071604 0.16928832 442.61787111 0.13975477 447.42928696 0.12688637 C449.25431751 0.1177295 451.07932822 0.09985098 452.90417862 0.0726223 C466.65438943 -0.12417043 478.5918675 0.69860631 489.56585693 10.03877258 C492.87276828 13.32407013 495.74334802 16.45981347 497.94085693 20.60127258 C498.27744324 21.22017365 498.61402954 21.83907471 498.96081543 22.47673035 C502.88067189 30.74337064 502.44976076 39.06308663 502.33148193 47.98408508 C502.32400783 49.65130429 502.31832044 51.31853237 502.31433105 52.98576355 C502.29916652 57.34245187 502.2599659 61.69859418 502.21551514 66.05506897 C502.17436248 70.51310341 502.15627764 74.97122735 502.13616943 79.42939758 C502.09346104 88.15360456 502.0253235 96.87737037 501.94085693 105.60127258 C500.85981689 105.65460754 499.77877686 105.7079425 498.66497803 105.76289368 C497.22306538 105.84150079 495.78117179 105.92045824 494.33929443 105.99971008 C493.62958496 106.03378967 492.91987549 106.06786926 492.18865967 106.10298157 C480.99106179 106.73972033 472.70558513 110.76803079 463.94085693 117.60127258 C463.05398193 118.19939758 462.16710693 118.79752258 461.25335693 119.41377258 C452.02652397 128.14185782 446.94259019 140.17972864 446.45013428 152.79853821 C446.38373137 167.49105465 451.35690789 179.28759648 461.21429443 190.09346008 C471.39102123 199.55603061 481.17310902 202.30782859 494.77679443 203.14814758 C495.46797363 203.19245911 496.15915283 203.23677063 496.87127686 203.28242493 C498.56102328 203.3904986 500.25092525 203.49613551 501.94085693 203.60127258 C502.01062454 212.94654556 502.06380328 222.29172773 502.09629345 231.63720512 C502.11189368 235.9775353 502.13302773 240.31768618 502.16717529 244.65791321 C502.19997149 248.85303108 502.2177523 253.04797739 502.22548866 257.24321365 C502.23099605 258.83705975 502.24174986 260.43089736 502.2580471 262.02466965 C502.39470375 275.95340513 500.86884523 286.97425736 491.12445068 297.57783508 C486.29800027 302.16052537 481.21533866 304.52835322 474.94085693 306.60127258 C473.95085693 306.93127258 472.96085693 307.26127258 471.94085693 307.60127258 C469.21765059 307.69255072 466.52055967 307.72728477 463.79754639 307.71479797 C462.55330902 307.71501701 462.55330902 307.71501701 461.28393555 307.71524048 C458.54064321 307.7145435 455.79741867 307.70676112 453.05413818 307.69892883 C451.15270525 307.69706389 449.25127184 307.69564035 447.34983826 307.69464111 C442.34390945 307.69082194 437.33800963 307.68099674 432.33209229 307.66993713 C427.22447095 307.65971015 422.11684493 307.65514073 417.00921631 307.65010071 C406.98641711 307.63937396 396.96363943 307.6223047 386.94085693 307.60127258 C386.880271 306.98638977 386.81968506 306.37150696 386.75726318 305.73799133 C386.63157959 304.52562805 386.63157959 304.52562805 386.50335693 303.28877258 C386.422146 302.48826477 386.34093506 301.68775696 386.25726318 300.86299133 C385.98820001 298.44040079 385.98820001 298.44040079 384.94085693 295.60127258 C380.787376 293.1580485 377.53684835 293.4948302 372.94085693 294.60127258 C370.6233421 296.30548724 370.01593378 297.23735045 369.42913818 300.08174133 C369.37113037 300.97506165 369.31312256 301.86838196 369.25335693 302.78877258 C369.15474365 304.14035461 369.15474365 304.14035461 369.05413818 305.51924133 C369.01675537 306.20631165 368.97937256 306.89338196 368.94085693 307.60127258 C320.0643613 307.66993895 271.18787055 307.7228015 222.31133617 307.75446857 C216.54103311 307.75822069 210.77073016 307.76210366 205.00042725 307.7660675 C203.85166366 307.76685444 202.70290008 307.76764137 201.51932548 307.76845215 C182.91863649 307.78150611 164.31797531 307.80515992 145.71730281 307.83273097 C126.63134682 307.8607854 107.54540539 307.87744893 88.45942962 307.88353807 C76.68234443 307.88765442 64.90533786 307.90065578 53.12827687 307.92502198 C45.05234287 307.94087961 36.97644952 307.94567287 28.90050109 307.94177672 C24.24109522 307.93985523 19.58182674 307.94280125 14.9224453 307.95888901 C10.65354027 307.97352072 6.38486464 307.97420375 2.1159489 307.96396927 C0.57472675 307.96270492 -0.96650989 307.96648271 -2.50770365 307.97592213 C-15.02495681 308.04810559 -24.94214121 307.00657426 -34.55914307 298.35127258 C-42.18795006 289.95958489 -45.32520232 283.35481248 -45.28619385 271.80830383 C-45.2864859 271.07561783 -45.28677795 270.34293182 -45.28707886 269.58804321 C-45.28569948 267.19649384 -45.27020494 264.80526667 -45.25445557 262.41377258 C-45.25072047 260.74368968 -45.24787585 259.07360457 -45.24588013 257.40351868 C-45.23828275 253.03055152 -45.21866818 248.65771947 -45.19647217 244.2848053 C-45.17592936 239.81349006 -45.16686045 235.34215277 -45.15679932 230.87080383 C-45.13541823 222.11423176 -45.10132991 213.35776903 -45.05914307 204.60127258 C-43.89503906 204.47067444 -42.73093506 204.34007629 -41.53155518 204.20552063 C-39.98734909 204.02898966 -38.44316055 203.85230512 -36.89898682 203.67549133 C-36.13372681 203.59005066 -35.3684668 203.50460999 -34.58001709 203.4165802 C-23.81279786 202.17521039 -16.69238936 199.25413263 -8.05914307 192.60127258 C-7.17226807 192.00314758 -6.28539307 191.40502258 -5.37164307 190.78877258 C3.54937282 182.34997377 8.65595803 171.42282201 9.17913818 159.24580383 C9.52267157 144.22627659 6.71935372 133.40325579 -3.43414307 121.91377258 C-14.41146844 112.24327166 -24.56943979 107.23840568 -39.28106689 106.0629425 C-40.36277664 105.97566391 -41.44448639 105.88838531 -42.55897522 105.79846191 C-43.38403061 105.73338943 -44.209086 105.66831696 -45.05914307 105.60127258 C-45.15201184 95.43919641 -45.22299357 85.27722198 -45.26639175 75.11480713 C-45.28722562 70.39546163 -45.31546612 65.67640747 -45.36090088 60.95722961 C-45.40450902 56.39901382 -45.42831175 51.84107744 -45.43865204 47.28266907 C-45.44601663 45.54759831 -45.4603979 43.81254206 -45.48206329 42.07759094 C-45.51129718 39.63853967 -45.51509088 37.20062839 -45.51324463 34.76142883 C-45.52762573 34.0514827 -45.54200684 33.34153656 -45.55682373 32.6100769 C-45.49203663 24.64856136 -41.23339849 17.48299992 -36.05914307 11.60127258 C-25.74866252 1.79550087 -13.67981249 -0.14021488 0 0 Z " fill="#FDFDFD" transform="translate(304.05914306640625,363.3987274169922)"/>
<path d="M0 0 C3.51664498 -0.00217809 7.03297105 -0.02037513 10.54956055 -0.03930664 C29.86317691 -0.08757078 48.81874928 1.02129484 67.83666992 4.46655273 C71.83279663 5.18194325 75.83012046 5.69483779 79.86010742 6.18530273 C85.21044383 6.87949195 90.31154754 7.88382499 95.52026367 9.27514648 C99.11537804 10.21952264 102.72371661 11.07816221 106.3425293 11.92602539 C120.69712736 15.2918418 134.97186535 18.84442888 149.04760742 23.24780273 C149.79671387 23.48104248 150.54582031 23.71428223 151.31762695 23.95458984 C156.98771694 25.76522266 162.47976209 27.92796097 167.98510742 30.18530273 C169.78580643 30.91337074 171.58658925 31.64123153 173.38745117 32.36889648 C187.50048239 38.10490926 201.245118 44.24525488 214.84301758 51.10620117 C218.51093463 52.95395515 222.18590847 54.78758147 225.86010742 56.62280273 C227.19086793 57.28810463 228.52159961 57.95346419 229.85229492 58.61889648 C230.88612305 59.13581055 231.91995117 59.65272461 232.98510742 60.18530273 C233.64510742 60.51530273 234.30510742 60.84530273 234.98510742 61.18530273 C234.98510742 61.84530273 234.98510742 62.50530273 234.98510742 63.18530273 C235.69924805 63.45342773 236.41338867 63.72155273 237.14916992 63.99780273 C252.88433728 70.58663315 267.27195845 82.17573174 280.98510742 92.18530273 C281.93836914 92.8772876 281.93836914 92.8772876 282.91088867 93.58325195 C296.4030012 103.40628161 308.8845343 114.20252886 321.10620117 125.55249023 C323.30987788 127.56779295 325.53656129 129.52932357 327.79760742 131.47827148 C332.23295926 135.34603664 336.39894408 139.45161272 340.54760742 143.62280273 C341.26368164 144.33500977 341.97975586 145.0472168 342.7175293 145.78100586 C346.79413665 149.86503197 350.6927694 154.04763652 354.45947266 158.41894531 C356.33775106 160.59358834 358.28554518 162.69955621 360.23510742 164.81030273 C365.29927317 170.43144103 369.9534172 176.32978264 374.55688477 182.32885742 C375.94648337 184.13509807 377.35000684 185.92980563 378.75463867 187.72436523 C399.08210708 213.97262609 420.87549233 245.37371622 432.05151367 276.81811523 C433.78821489 281.22163382 435.91698884 285.45906165 437.97338867 289.72045898 C443.5484711 301.79323503 447.87926893 314.32551008 452.04760742 326.93530273 C452.44071609 328.11968933 452.44071609 328.11968933 452.84176636 329.32800293 C459.97120798 350.84942812 464.90181351 372.25822935 468.23779297 394.66748047 C468.5481418 396.75139096 468.86295859 398.83458963 469.1784668 400.91772461 C470.54710402 409.99310078 471.87486432 419.07424507 472.98510742 428.18530273 C473.07594604 428.92269684 473.16678467 429.66009094 473.26037598 430.41983032 C474.88450179 443.94139743 475.34593704 457.32375933 475.29760742 470.93530273 C475.29644928 471.95455841 475.29529114 472.97381409 475.2940979 474.0239563 C475.25413153 491.92592438 474.15403193 509.41238422 471.98510742 527.18530273 C471.75248071 529.28532523 471.52192313 531.38557824 471.29370117 533.48608398 C468.96301494 554.23003286 465.72969038 574.99836993 459.63989258 594.99389648 C458.9447613 597.32033136 458.29481164 599.65609652 457.65307617 601.99780273 C454.84601117 612.19182922 451.73429064 622.26875705 448.42260742 632.31030273 C448.05876953 633.42397217 447.69493164 634.5376416 447.32006836 635.68505859 C445.23736589 641.91682193 442.87546476 647.88681459 440.08544922 653.83569336 C438.8478894 656.47831055 437.7483072 659.16071025 436.67260742 661.87280273 C433.84918964 668.69970455 430.52396692 675.24547981 427.17553711 681.82348633 C425.86646731 684.42068511 424.58440767 687.03019494 423.30541992 689.64233398 C418.30109507 699.83422836 413.14848357 709.64162533 406.98510742 719.18530273 C406.20612578 720.44260055 405.4302451 721.70182333 404.65698242 722.96264648 C391.74295738 743.98679229 377.13878873 763.53827817 360.98510742 782.18530273 C360.37538086 782.89557617 359.7656543 783.60584961 359.13745117 784.33764648 C357.43737978 786.30297724 355.71544773 788.24657736 353.98510742 790.18530273 C353.29288086 790.9703418 352.6006543 791.75538086 351.88745117 792.56420898 C345.42099564 799.76851681 338.63301136 806.64524258 331.79760742 813.49780273 C331.08784256 814.21144989 331.08784256 814.21144989 330.36373901 814.93951416 C324.74779098 820.57964843 319.05371379 826.0352425 312.98510742 831.18530273 C311.9755396 832.06238548 310.9663948 832.93995548 309.95776367 833.81811523 C284.76070252 855.39626961 257.20274384 874.46391334 227.98510742 890.18530273 C227.13464844 890.64404785 226.28418945 891.10279297 225.40795898 891.57543945 C205.20589741 902.42019215 184.61156672 912.24851222 162.92260742 919.74780273 C162.08922852 920.03848633 161.25584961 920.32916992 160.3972168 920.62866211 C120.58181288 934.47884542 81.01120494 943.45838538 38.98510742 947.18530273 C37.88497314 947.28319092 36.78483887 947.3810791 35.65136719 947.48193359 C23.83576025 948.40219312 12.01768159 948.38590966 0.17260742 948.37280273 C-0.91914795 948.37186615 -2.01090332 948.37092957 -3.13574219 948.3699646 C-19.17605946 948.34012639 -35.07867365 948.19593578 -51.01489258 946.18530273 C-52.25416504 946.02932617 -53.4934375 945.87334961 -54.77026367 945.71264648 C-81.2778269 942.29042424 -107.38977657 936.81311799 -133.01489258 929.18530273 C-134.04614258 928.89526367 -135.07739258 928.60522461 -136.13989258 928.30639648 C-146.68475811 925.244541 -156.88740513 921.17446836 -167.1418457 917.27075195 C-169.71343812 916.2991935 -172.29072701 915.34718137 -174.87426758 914.40795898 C-175.59380615 914.1448291 -176.31334473 913.88169922 -177.0546875 913.6105957 C-178.926912 912.92769136 -180.80090589 912.2496432 -182.67504883 911.57202148 C-185.18469535 910.53000451 -187.32966901 909.48078699 -189.65161133 908.11889648 C-192.4343073 906.5190887 -194.73199204 905.48645693 -197.76489258 904.56030273 C-205.90984528 901.73958893 -213.35436831 897.3917822 -220.91577148 893.3059082 C-223.59038168 891.87808071 -226.29366597 890.521815 -229.01489258 889.18530273 C-229.01489258 888.52530273 -229.01489258 887.86530273 -229.01489258 887.18530273 C-229.86051758 886.93780273 -230.70614258 886.69030273 -231.57739258 886.43530273 C-235.36892066 885.05656525 -238.5747447 883.25739181 -242.01489258 881.18530273 C-242.98426758 880.64905273 -243.95364258 880.11280273 -244.95239258 879.56030273 C-245.63301758 879.10655273 -246.31364258 878.65280273 -247.01489258 878.18530273 C-247.01489258 877.52530273 -247.01489258 876.86530273 -247.01489258 876.18530273 C-247.69293945 876.1144043 -248.37098633 876.04350586 -249.06958008 875.97045898 C-252.94756515 874.93667251 -255.88451398 872.8810683 -259.13989258 870.62280273 C-259.802229 870.17171143 -260.46456543 869.72062012 -261.14697266 869.25585938 C-266.85468116 865.34840697 -272.46862726 861.31861027 -278.01489258 857.18530273 C-278.96750977 856.47760742 -279.92012695 855.76991211 -280.90161133 855.04077148 C-283.9480344 852.76690537 -286.9823966 850.4777027 -290.01489258 848.18530273 C-290.57031738 847.76958008 -291.12574219 847.35385742 -291.69799805 846.92553711 C-297.48955031 842.589686 -303.16007041 838.32670652 -308.12988281 833.03686523 C-310.2402338 830.96395993 -312.48292396 829.19324563 -314.81176758 827.36889648 C-321.540333 821.90172879 -327.63496516 815.8669913 -333.74047852 809.72045898 C-335.63705197 807.81315941 -337.54409563 805.91680214 -339.45239258 804.02124023 C-346.43695879 797.04422098 -352.8815532 789.92799672 -359.01489258 782.18530273 C-360.00935095 781.0209169 -361.01206426 779.86347735 -362.02661133 778.71655273 C-385.20304291 752.51563081 -405.69951244 721.66610616 -421.01489258 690.20874023 C-422.36823773 687.44678385 -423.78590862 684.73361328 -425.26489258 682.03686523 C-429.33465203 674.61402271 -433.00272606 667.2065873 -436.07739258 659.31030273 C-436.52610718 658.15908936 -436.52610718 658.15908936 -436.98388672 656.98461914 C-438.13621154 653.92577067 -439.01489258 651.48070996 -439.01489258 648.18530273 C-439.67489258 648.18530273 -440.33489258 648.18530273 -441.01489258 648.18530273 C-441.40418945 647.01741211 -441.79348633 645.84952148 -442.19458008 644.64624023 C-442.45907959 643.8534668 -442.7235791 643.06069336 -442.99609375 642.24389648 C-443.60477613 640.41635301 -444.21163811 638.58820245 -444.81689453 636.75952148 C-446.69119458 631.10753022 -448.60541172 625.47216432 -450.56567383 619.84936523 C-455.32183255 606.12352248 -459.36889231 592.65246587 -461.65893555 578.26879883 C-462.13982088 575.45406943 -462.8165124 572.70322837 -463.51489258 569.93530273 C-466.00715998 559.48956996 -467.43441656 548.79935345 -469.01489258 538.18530273 C-469.19133301 537.00170166 -469.19133301 537.00170166 -469.37133789 535.79418945 C-470.65080971 527.00645203 -471.32958055 518.25568765 -471.67382812 509.38891602 C-471.80836919 506.10666738 -471.97008955 503.31971183 -473.01489258 500.18530273 C-473.10756991 498.47315529 -473.14280884 496.75762201 -473.14428711 495.04296875 C-473.14743927 493.99500626 -473.15059143 492.94704376 -473.15383911 491.86732483 C-473.15181488 490.7360466 -473.14979065 489.60476837 -473.14770508 488.43920898 C-473.1486618 487.27655014 -473.14961853 486.1138913 -473.15060425 484.91600037 C-473.15128519 482.45555568 -473.1494369 479.99510921 -473.14526367 477.53466797 C-473.13991907 473.76647911 -473.14520913 469.99840972 -473.15161133 466.23022461 C-473.15095044 463.84155247 -473.14966905 461.45288041 -473.14770508 459.06420898 C-473.14972931 457.93495499 -473.15175354 456.80570099 -473.15383911 455.64222717 C-473.15068695 454.59111252 -473.14753479 453.53999786 -473.14428711 452.45703125 C-473.14349152 451.533423 -473.14269592 450.60981476 -473.14187622 449.65821838 C-473.02314232 447.34596051 -472.62790228 445.40745368 -472.01489258 443.18530273 C-471.83657842 441.25071624 -471.69773414 439.31232795 -471.58520508 437.37280273 C-471.51366211 436.22392578 -471.44211914 435.07504883 -471.3684082 433.89135742 C-471.29299805 432.66835938 -471.21758789 431.44536133 -471.13989258 430.18530273 C-470.55518344 421.38520362 -469.8476461 412.6563296 -468.51489258 403.93530273 C-468.39645996 403.15799805 -468.27802734 402.38069336 -468.15600586 401.57983398 C-467.49081141 397.47133314 -466.58242213 393.5049317 -465.53027344 389.47509766 C-464.89335228 386.64530915 -464.47250371 383.80878238 -464.05004883 380.93920898 C-460.95824018 360.09424107 -454.78232043 340.08826601 -448.01489258 320.18530273 C-447.67748047 319.18547363 -447.34006836 318.18564453 -446.99243164 317.15551758 C-446.07093755 314.43325886 -445.14029993 311.71444634 -444.20239258 308.99780273 C-443.80419312 307.84175537 -443.80419312 307.84175537 -443.39794922 306.66235352 C-441.78325951 302.07835843 -439.93910773 297.64951149 -437.93212891 293.22363281 C-436.80444149 290.71762742 -435.78409307 288.17460694 -434.76489258 285.62280273 C-431.5716549 277.94359672 -427.81246709 270.576716 -424.01489258 263.18530273 C-423.55099121 262.27683594 -423.08708984 261.36836914 -422.60913086 260.43237305 C-416.79993361 249.0717439 -410.90237074 237.93249638 -404.01489258 227.18530273 C-403.26075338 225.95265902 -402.50960881 224.7181797 -401.76098633 223.48217773 C-395.3743873 212.98786389 -388.35184247 203.03458803 -381.01489258 193.18530273 C-380.56082031 192.57525391 -380.10674805 191.96520508 -379.63891602 191.33666992 C-373.41286383 183.01481245 -366.79928834 175.05309813 -360.01489258 167.18530273 C-359.40000977 166.46858398 -358.78512695 165.75186523 -358.15161133 165.01342773 C-356.45626671 163.05508216 -354.73965728 161.11778103 -353.01489258 159.18530273 C-352.32266602 158.40026367 -351.63043945 157.61522461 -350.91723633 156.80639648 C-344.45078079 149.60208866 -337.66279652 142.72536289 -330.82739258 135.87280273 C-330.354216 135.39703796 -329.88103943 134.92127319 -329.39352417 134.43109131 C-324.30192078 129.31755987 -319.16891509 124.32004793 -313.68896484 119.62304688 C-311.59692204 117.82633693 -309.59270874 115.94228039 -307.57739258 114.06030273 C-301.12077375 108.23649187 -294.1746234 103.06630695 -287.22729492 97.84936523 C-285.0736689 96.22951145 -282.92814509 94.599483 -280.78442383 92.96655273 C-268.96012524 83.98569972 -256.73959443 75.84423018 -244.01489258 68.18530273 C-243.3795459 67.80116211 -242.74419922 67.41702148 -242.08959961 67.02124023 C-211.69590872 48.69487179 -179.78553312 34.1006673 -146.01489258 23.18530273 C-144.49257302 22.66891818 -142.97045624 22.15193565 -141.44848633 21.63452148 C-120.91869501 14.76148751 -99.7672367 9.64426694 -78.31176758 6.69311523 C-75.14382322 6.37720124 -75.14382322 6.37720124 -73.01489258 5.18530273 C-70.65722523 4.83111316 -68.31174455 4.52220804 -65.94458008 4.24780273 C-65.23069122 4.16280518 -64.51680237 4.07780762 -63.78128052 3.99023438 C-62.25992583 3.81021343 -60.73834097 3.63212896 -59.21655273 3.45581055 C-56.94675789 3.19191415 -54.67809881 2.91957457 -52.40942383 2.64624023 C-34.92126058 0.57083333 -17.60108259 -0.00121512 0 0 Z M-116.59057617 70.32299805 C-119.24587444 71.26746063 -121.91990939 72.14822971 -124.59841919 73.02435303 C-127.44556986 73.95567059 -130.2895392 74.89653768 -133.13378906 75.83666992 C-134.59028307 76.31714274 -136.04731179 76.79599778 -137.50488281 77.27319336 C-146.51284889 80.22402624 -155.3212976 83.38309854 -164.01489258 87.18530273 C-164.77850098 87.51054932 -165.54210937 87.8357959 -166.32885742 88.17089844 C-187.34867266 97.14871864 -208.13446064 108.32766091 -227.01489258 121.18530273 C-228.2815941 122.03199445 -229.54853194 122.8783327 -230.81567383 123.72436523 C-248.43271511 135.57563298 -264.94821396 148.74369852 -280.64379883 163.03295898 C-282.18153012 164.4288238 -283.73045488 165.81249371 -285.29223633 167.18139648 C-290.78570551 172.01674623 -296.01936606 177.08442243 -301.20239258 182.24780273 C-301.86770996 182.90852783 -302.53302734 183.56925293 -303.21850586 184.25 C-307.6864272 188.73180377 -311.8971609 193.38138679 -316.01489258 198.18530273 C-316.90413058 199.20621004 -317.79344673 200.22704928 -318.68286133 201.24780273 C-325.85735072 209.61247874 -332.53895608 218.27055611 -339.01489258 227.18530273 C-339.57080078 227.9472998 -340.12670898 228.70929688 -340.69946289 229.49438477 C-349.40684539 241.48854604 -357.23762269 253.83865873 -364.59106445 266.70483398 C-365.84383469 268.88730065 -367.1182701 271.05432785 -368.40551758 273.21655273 C-380.73117697 294.16035246 -390.4158207 316.98242483 -397.40869141 340.22705078 C-398.05713125 342.32174913 -398.74591321 344.39980098 -399.44458008 346.47827148 C-407.13674013 369.39607491 -412.30361213 391.87189352 -415.54467773 415.81811523 C-415.96870842 418.85458003 -416.44277716 421.87771676 -416.93286133 424.90405273 C-419.24977894 440.32508671 -419.27873607 455.68550406 -419.26489258 471.24780273 C-419.26420776 472.35140137 -419.26352295 473.455 -419.26281738 474.59204102 C-419.20153865 504.57182786 -416.61197024 533.77163294 -410.07739258 563.06030273 C-409.91439667 563.79536041 -409.75140076 564.53041809 -409.58346558 565.28775024 C-407.4653476 574.75653833 -404.97231799 584.06830734 -402.16113281 593.35449219 C-401.05335153 597.05677037 -400.0228644 600.76747085 -399.01489258 604.49780273 C-397.48776593 609.87353486 -395.59932465 614.95869435 -393.35864258 620.07592773 C-392.24615895 622.6501631 -391.20153437 625.23262242 -390.17504883 627.84155273 C-370.9200351 676.18162928 -343.3228663 719.97614935 -308.01489258 758.18530273 C-306.72325195 759.61422852 -306.72325195 759.61422852 -305.40551758 761.07202148 C-296.75758246 770.6314 -287.84963278 779.8308781 -278.01489258 788.18530273 C-276.52602539 789.49047852 -276.52602539 789.49047852 -275.00708008 790.82202148 C-254.51122948 808.7379539 -232.31876566 824.16713422 -209.01489258 838.18530273 C-208.38019043 838.57169922 -207.74548828 838.9580957 -207.09155273 839.35620117 C-186.72005474 851.72191526 -164.279043 861.38802234 -141.89379883 869.4987793 C-140.14729399 870.1369253 -138.40882884 870.79695785 -136.67114258 871.45874023 C-126.83278965 875.13641026 -116.76753426 877.81590252 -106.61938477 880.49194336 C-104.2694805 881.11752717 -101.92642053 881.76245665 -99.58520508 882.41967773 C-93.82033374 884.02828215 -88.25341117 885.44072085 -82.27661133 885.91577148 C-79.51485387 886.24489284 -76.90255901 886.89296122 -74.20239258 887.56030273 C-68.62571448 888.89117469 -63.05459506 889.89210749 -57.38989258 890.74780273 C-56.64634521 890.86236816 -55.90279785 890.97693359 -55.13671875 891.0949707 C-52.43291513 891.49130744 -49.72613188 891.84316465 -47.01489258 892.18530273 C-46.36797455 892.26928314 -45.72105652 892.35326355 -45.05453491 892.43978882 C-32.97009174 893.97737852 -21.0579143 894.47287797 -8.88134766 894.39111328 C-6.0826701 894.3728372 -3.28432695 894.37060499 -0.4855957 894.37084961 C17.8855456 894.33763693 35.97520613 893.50508806 54.17260742 890.93530273 C54.96504852 890.82581299 55.75748962 890.71632324 56.57394409 890.60351562 C70.49584667 888.67439167 84.27345078 886.29324517 97.98510742 883.18530273 C98.84233398 882.99500488 99.69956055 882.80470703 100.58276367 882.60864258 C114.70239554 879.43609006 128.34938855 875.00549069 141.98510742 870.18530273 C143.02344727 869.81856445 144.06178711 869.45182617 145.1315918 869.07397461 C157.87015687 864.53294862 170.04302631 859.52647797 181.98510742 853.18530273 C183.75326679 852.30491184 185.52378479 851.42922677 187.29760742 850.56030273 C191.50066795 848.45529887 195.63591437 846.24290794 199.75073242 843.97045898 C202.21322354 842.61133043 204.68202389 841.26745083 207.15698242 839.93139648 C217.1404042 834.50787669 226.65029226 828.65671294 235.98510742 822.18530273 C236.83975586 821.60393555 237.6944043 821.02256836 238.57495117 820.42358398 C251.26435056 811.70358075 263.37219882 802.28628141 274.98510742 792.18530273 C275.70956055 791.56139648 276.43401367 790.93749023 277.18041992 790.29467773 C279.12903492 788.60640401 281.0593325 786.89957636 282.98510742 785.18530273 C283.87069336 784.40413086 284.7562793 783.62295898 285.66870117 782.81811523 C286.61874023 781.96991211 287.5687793 781.12170898 288.54760742 780.24780273 C289.41514648 779.4756543 290.28268555 778.70350586 291.17651367 777.90795898 C293.36839606 775.78314393 295.342819 773.66730609 297.32885742 771.36108398 C300.98481001 767.1177898 304.91694638 763.22051095 308.92260742 759.31030273 C314.07992222 754.21846453 318.94073666 749.11180098 323.33666992 743.33374023 C324.94838605 741.23316234 326.64976029 739.27567625 328.42260742 737.31030273 C346.89636648 716.4379007 362.17306236 690.87890913 374.98510742 666.18530273 C375.5497168 665.13084961 376.11432617 664.07639648 376.69604492 662.98999023 C387.67443982 642.09784144 396.03889465 619.70061311 402.98510742 597.18530273 C403.35764648 595.98131836 403.73018555 594.77733398 404.11401367 593.53686523 C404.91780026 590.81273494 405.67921953 588.08233241 406.4074707 585.3371582 C406.85017508 583.68796277 407.30370645 582.04167039 407.76196289 580.39672852 C412.13674707 564.68117644 415.45300605 549.11252399 417.61499023 532.94213867 C417.93564948 530.55369261 418.27733605 528.17020598 418.63354492 525.78686523 C421.00969178 509.36045869 421.19043723 492.9366899 421.17260742 476.37280273 C421.17200317 475.33450317 421.17139893 474.29620361 421.17077637 473.22644043 C421.11822207 439.90829817 417.69862969 407.64380446 409.98510742 375.18530273 C409.81462891 374.43571289 409.64415039 373.68612305 409.46850586 372.91381836 C406.75653135 361.04151642 402.85736225 349.57107019 398.92260742 338.06030273 C398.53031448 336.90963318 398.53031448 336.90963318 398.13009644 335.73571777 C394.90681556 326.31418845 391.51303599 317.13055561 386.98510742 308.24780273 C385.57782777 305.48275759 384.39850027 302.71698595 383.30541992 299.81420898 C380.60483224 293.0085036 377.23771601 286.54706185 373.86010742 280.06030273 C373.52774078 279.4194574 373.19537415 278.77861206 372.85293579 278.11834717 C368.00460465 268.78889233 362.96599419 259.65953142 357.12817383 250.90649414 C355.96959178 249.1619398 354.84077358 247.40075799 353.71557617 245.63452148 C341.11565522 226.05577639 326.29888803 207.96891251 310.49291992 190.91186523 C308.32507867 188.5549288 306.20510415 186.16929246 304.11010742 183.74780273 C299.35171466 178.28404822 294.12127851 173.4644489 288.72338867 168.64233398 C285.97746644 166.17844656 283.26279802 163.68296734 280.54760742 161.18530273 C275.70876573 156.79125707 270.76303996 152.57786201 265.64770508 148.5090332 C264.45706169 147.56106427 263.26959181 146.60910406 262.08422852 145.65454102 C250.18118768 136.08631655 237.81104203 127.4664265 224.98510742 119.18530273 C224.13142578 118.63003906 223.27774414 118.07477539 222.39819336 117.50268555 C213.15316245 111.49891212 203.96528783 105.89780707 193.98510742 101.18530273 C192.6953676 100.53688122 191.4077401 99.88424758 190.12182617 99.22827148 C183.12363923 95.66138386 176.14468167 92.27172317 168.82885742 89.38842773 C165.98510742 88.18530273 165.98510742 88.18530273 162.51635742 86.35327148 C156.58740753 83.35387106 150.26722164 81.3688413 143.98510742 79.24780273 C142.6748329 78.80183261 141.36461187 78.3557053 140.05444336 77.90942383 C136.36829324 76.65715969 132.67748302 75.41909912 128.98510742 74.18530273 C128.11563477 73.89413574 127.24616211 73.60296875 126.3503418 73.30297852 C118.09957999 70.56298672 109.78855799 68.31178357 101.30053711 66.43969727 C96.08114885 65.28134416 96.08114885 65.28134416 94.98510742 64.18530273 C92.15361107 63.66480708 89.32908199 63.18934337 86.48510742 62.74780273 C81.78698245 62.01274841 77.12481191 61.24787869 72.48901367 60.18139648 C64.088841 58.2646215 55.52691635 57.25485778 46.98510742 56.18530273 C46.13722656 56.07653809 45.2893457 55.96777344 44.41577148 55.85571289 C-7.07498826 49.57172223 -67.33274916 52.78754293 -116.59057617 70.32299805 Z " fill="#7FB684" transform="translate(511.014892578125,37.814697265625)"/>
<path d="M0 0 C3.39316616 0.01074637 6.78580447 0.0000122 10.17895508 -0.01269531 C23.40797117 -0.02107584 36.42672973 0.58680731 49.57846069 2.01696777 C52.53725334 2.33740971 55.49983266 2.61571522 58.4621582 2.90136719 C80.68578363 5.27552669 102.14582211 10.36670048 123.6418457 16.32324219 C124.3914859 16.53071075 125.1411261 16.73817932 125.91348267 16.95193481 C140.21029148 20.92989868 154.18552586 25.37661503 167.8293457 31.26074219 C169.84941957 32.09591485 171.87025791 32.92924078 173.8918457 33.76074219 C179.59606327 36.13873418 185.21988708 38.66826266 190.8293457 41.26074219 C192.60051758 42.07671875 192.60051758 42.07671875 194.4074707 42.90917969 C197.54907966 44.35758382 200.68965011 45.80819621 203.8293457 47.26074219 C203.8293457 47.92074219 203.8293457 48.58074219 203.8293457 49.26074219 C204.54396973 49.36563965 205.25859375 49.47053711 205.99487305 49.57861328 C209.14951646 50.33779276 211.38952605 51.52708291 214.1809082 53.17480469 C215.19797852 53.77164063 216.21504883 54.36847656 217.26293945 54.98339844 C218.31610352 55.61117187 219.36926758 56.23894531 220.4543457 56.88574219 C221.48430664 57.4903125 222.51426758 58.09488281 223.57543945 58.71777344 C242.64878967 69.96985048 260.52096187 82.46771038 277.8293457 96.26074219 C278.93802002 97.14076904 278.93802002 97.14076904 280.0690918 98.03857422 C282.22351789 99.75211665 284.37157959 101.47325046 286.5168457 103.19824219 C287.15170898 103.70532715 287.78657227 104.21241211 288.44067383 104.73486328 C292.20744398 107.79011017 295.64733182 111.02817658 299.03930664 114.49243164 C300.82576784 116.25720776 302.67564353 117.89394122 304.58325195 119.52636719 C309.37683638 123.66780251 313.8602414 128.10556777 318.33789062 132.58398438 C319.75602854 133.99994166 321.18231235 135.40772508 322.60864258 136.81542969 C328.03766266 142.23313145 333.06383019 147.80508569 337.85253906 153.79589844 C339.92423602 156.37905917 342.08079784 158.86287817 344.27661133 161.33984375 C351.49132188 169.50929067 357.71002248 178.2550585 363.8293457 187.26074219 C364.3243457 187.98277832 364.8193457 188.70481445 365.3293457 189.44873047 C395.17698224 233.04454594 416.02176038 280.32380427 429.8293457 331.26074219 C430.13614258 332.38609375 430.44293945 333.51144531 430.7590332 334.67089844 C443.22390388 382.41006809 444.8780285 433.56802434 440.08520508 482.50146484 C439.85081349 485.02922604 439.67827587 487.55080374 439.5324707 490.08496094 C437.41673629 522.35246594 427.27653829 555.00081476 416.6418457 585.32324219 C416.38359009 586.06134125 416.12533447 586.79944031 415.85925293 587.55990601 C413.23651371 595.01927262 410.53899173 602.25898605 406.8293457 609.26074219 C405.915842 611.39911284 405.01951697 613.54491657 404.1418457 615.69824219 C401.14667119 622.77292022 397.62705099 629.48574394 393.9777832 636.24121094 C392.20973106 639.5189312 390.56219578 642.83848611 388.9543457 646.19824219 C375.56826731 673.15427367 356.84676682 698.88619721 336.8293457 721.26074219 C336.0043457 722.185 335.1793457 723.10925781 334.3293457 724.06152344 C332.91114655 725.64022824 331.48890029 727.21532298 330.05981445 728.78417969 C328.82234929 730.15817779 327.59157712 731.53862262 326.3894043 732.94360352 C321.66058444 738.45402914 316.64022604 743.63604432 311.50610352 748.76928711 C310.09014623 750.18742503 308.68236281 751.61370883 307.2746582 753.04003906 C301.84394412 758.48209865 296.26506106 763.53339108 290.24291992 768.31469727 C287.98098957 770.138473 285.83542241 772.0369507 283.7043457 774.01074219 C266.21838452 789.62210999 246.1318245 802.66384608 225.92700195 814.45214844 C223.21882188 816.03334311 220.55549404 817.66888399 217.8918457 819.32324219 C211.7243998 823.03197432 205.23989213 826.14144364 198.77856445 829.29882812 C197.51565079 829.92205957 196.25744403 830.55495927 195.00512695 831.19921875 C164.17434211 847.01689177 129.58382507 857.91774426 95.8293457 865.26074219 C94.56219727 865.53644043 93.29504883 865.81213867 91.98950195 866.09619141 C76.3593539 869.45382704 60.77926649 872.16659221 44.79394531 873.08862305 C42.60896777 873.21547878 40.42496847 873.35946432 38.24169922 873.51293945 C25.67380525 874.37415436 13.11146494 874.5447198 0.5168457 874.57324219 C-0.59616913 874.5758606 -1.70918396 874.578479 -2.85592651 874.58117676 C-27.54619931 874.58735987 -52.34227928 873.31064342 -76.3737793 867.19042969 C-80.43481164 866.19606169 -84.48459404 865.49194039 -88.6081543 864.82324219 C-94.90254839 863.7717168 -101.06036442 862.37939022 -107.2331543 860.76074219 C-108.00651123 860.55908447 -108.77986816 860.35742676 -109.57666016 860.1496582 C-113.91598365 858.97987848 -118.08476899 857.58237714 -122.27490234 855.96142578 C-125.14960525 854.89891485 -128.08768156 854.11909397 -131.0456543 853.32324219 C-136.95201202 851.66719519 -142.52978514 849.65126128 -148.1706543 847.26074219 C-149.69023792 846.65343913 -151.21112166 846.04938113 -152.7331543 845.44824219 C-154.54630959 844.72070652 -156.35870955 843.99128755 -158.1706543 843.26074219 C-158.78328125 843.01453125 -159.3959082 842.76832031 -160.02709961 842.51464844 C-173.80394727 836.96407271 -187.19201686 830.89150621 -200.3581543 824.01074219 C-201.17268066 823.58623779 -201.98720703 823.1617334 -202.82641602 822.72436523 C-203.59356934 822.31871338 -204.36072266 821.91306152 -205.15112305 821.49511719 C-205.83070068 821.13643555 -206.51027832 820.77775391 -207.21044922 820.40820312 C-209.1706543 819.26074219 -209.1706543 819.26074219 -211.25 817.6953125 C-213.43946173 816.05996521 -215.61022259 815.18534253 -218.1706543 814.26074219 C-218.1706543 813.60074219 -218.1706543 812.94074219 -218.1706543 812.26074219 C-219.15485352 811.91462891 -219.15485352 811.91462891 -220.15893555 811.56152344 C-239.61776428 803.15712659 -257.16522899 788.27018307 -273.31860352 774.80419922 C-275.10854856 773.3124997 -276.90656424 771.83104232 -278.70581055 770.35058594 C-284.78407335 765.31486172 -290.51540442 760.05830496 -296.0300293 754.40136719 C-297.74961589 752.6817806 -299.45419659 751.13886669 -301.3581543 749.63574219 C-304.30378191 747.14832332 -306.6381792 744.48286521 -309.12768555 741.55371094 C-311.49339245 738.89851026 -314.00292353 736.4342314 -316.5456543 733.94824219 C-320.92658474 729.63115855 -324.91670287 725.12172817 -328.74487305 720.30761719 C-330.51506168 718.08419186 -332.30393927 715.89234405 -334.12768555 713.71386719 C-342.78299527 703.32643287 -350.60596726 692.46299405 -358.1706543 681.26074219 C-358.66307617 680.53242187 -359.15549805 679.80410156 -359.6628418 679.05371094 C-371.52590396 661.39020126 -381.70830457 642.82900091 -390.98803711 623.6953125 C-392.02406114 621.56252315 -393.07519196 619.43816415 -394.1315918 617.31542969 C-398.52090173 608.27861512 -401.93464188 598.98811964 -405.27612305 589.52246094 C-406.48943738 586.09254489 -407.78454761 582.71806178 -409.1706543 579.35449219 C-427.05817937 535.08037302 -432.7596184 485.0427982 -432.6706543 437.69824219 C-432.66919403 436.4914682 -432.66773376 435.28469421 -432.66622925 434.04135132 C-432.60743445 418.36162357 -431.85208273 402.85068729 -430.1706543 387.26074219 C-430.09540527 386.56030792 -430.02015625 385.85987366 -429.94262695 385.13821411 C-426.77690426 356.41806432 -421.29163737 327.16241978 -410.86962891 300.11523438 C-409.73895032 297.11536203 -408.77950343 294.06133481 -407.7956543 291.01074219 C-405.57338252 284.27004483 -403.00261582 277.76659974 -400.1706543 271.26074219 C-399.35899441 269.36640881 -398.54784638 267.47185608 -397.73706055 265.57714844 C-396.84047962 263.49227448 -395.94333782 261.40764164 -395.0456543 259.32324219 C-394.61357666 258.31519531 -394.18149902 257.30714844 -393.73632812 256.26855469 C-393.32020264 255.30820312 -392.90407715 254.34785156 -392.4753418 253.35839844 C-392.10393066 252.49738525 -391.73251953 251.63637207 -391.34985352 250.74926758 C-390.11237799 248.13775867 -388.67764087 245.72476276 -387.1706543 243.26074219 C-386.09363731 241.10125496 -385.0323439 238.9338855 -383.9831543 236.76074219 C-381.02761614 230.73577691 -377.67814138 225.05905507 -374.0925293 219.38183594 C-371.7101248 215.51284977 -369.58347215 211.5364993 -367.49487305 207.50292969 C-366.2309674 205.36286527 -364.92877659 203.98587022 -363.1706543 202.26074219 C-362.46303324 201.03346191 -361.80026875 199.77980881 -361.1706543 198.51074219 C-357.61478012 191.92380659 -353.03390248 186.06927485 -348.54760742 180.09912109 C-347.3017613 178.43578399 -346.07121998 176.76101048 -344.8425293 175.08496094 C-339.69733245 168.09822781 -334.22975904 161.46769387 -328.56811523 154.90087891 C-327.23993193 153.34205022 -325.94262344 151.75706973 -324.6472168 150.17089844 C-317.87637785 141.92753191 -310.45779997 134.35953271 -302.9206543 126.82324219 C-302.40105133 126.30273285 -301.88144836 125.78222351 -301.34609985 125.24594116 C-295.46689754 119.36789844 -289.50804361 113.64822221 -283.1706543 108.26074219 C-282.07555065 107.30004345 -280.98175434 106.33785198 -279.8894043 105.37402344 C-271.3075061 97.87725359 -262.39038324 90.95332426 -253.1706543 84.26074219 C-252.49131836 83.76574219 -251.81198242 83.27074219 -251.11206055 82.76074219 C-225.31672223 64.03595974 -197.69139207 48.57920731 -168.6706543 35.44824219 C-167.84549316 35.07481689 -167.02033203 34.7013916 -166.17016602 34.31665039 C-161.22907204 32.10785001 -156.25313454 30.11657354 -151.1706543 28.26074219 C-149.42707876 27.60081298 -147.68359644 26.94063746 -145.94018555 26.28027344 C-134.4146226 21.98168156 -122.84636191 18.14918384 -110.9831543 14.88574219 C-109.23192261 14.40391479 -109.23192261 14.40391479 -107.4453125 13.91235352 C-94.28514398 10.37615902 -81.00984202 7.76872042 -67.56982422 5.58081055 C-65.2653055 5.2035061 -62.96319133 4.81341857 -60.66088867 4.42285156 C-40.48998512 1.07253298 -20.43360904 -0.07666842 0 0 Z M-112.74633789 33.3984375 C-115.40163615 34.34290008 -118.07567111 35.22366916 -120.75418091 36.09979248 C-123.60133158 37.03111004 -126.44530092 37.97197714 -129.28955078 38.91210938 C-130.74604478 39.39258219 -132.20307351 39.87143723 -133.66064453 40.34863281 C-142.66861061 43.29946569 -151.47705932 46.458538 -160.1706543 50.26074219 C-160.9342627 50.58598877 -161.69787109 50.91123535 -162.48461914 51.24633789 C-183.50443438 60.22415809 -204.29022236 71.40310037 -223.1706543 84.26074219 C-224.43735582 85.10743391 -225.70429366 85.95377216 -226.97143555 86.79980469 C-244.58847683 98.65107244 -261.10397567 111.81913797 -276.79956055 126.10839844 C-278.33729184 127.50426325 -279.8862166 128.88793316 -281.44799805 130.25683594 C-286.94146723 135.09218568 -292.17512778 140.15986188 -297.3581543 145.32324219 C-298.02347168 145.98396729 -298.68878906 146.64469238 -299.37426758 147.32543945 C-303.84218892 151.80724323 -308.05292261 156.45682624 -312.1706543 161.26074219 C-313.0598923 162.28164949 -313.94920845 163.30248873 -314.83862305 164.32324219 C-322.01311244 172.68791819 -328.6947178 181.34599556 -335.1706543 190.26074219 C-335.7265625 191.02273926 -336.2824707 191.78473633 -336.85522461 192.56982422 C-345.56260711 204.56398549 -353.3933844 216.91409819 -360.74682617 229.78027344 C-361.99959641 231.96274011 -363.27403182 234.1297673 -364.5612793 236.29199219 C-376.88693869 257.23579191 -386.57158242 280.05786429 -393.56445312 303.30249023 C-394.21289297 305.39718858 -394.90167493 307.47524044 -395.6003418 309.55371094 C-403.29250185 332.47151436 -408.45937385 354.94733297 -411.70043945 378.89355469 C-412.12447014 381.93001949 -412.59853888 384.95315621 -413.08862305 387.97949219 C-415.40554066 403.40052616 -415.43449779 418.76094352 -415.4206543 434.32324219 C-415.41996948 435.42684082 -415.41928467 436.53043945 -415.4185791 437.66748047 C-415.35730036 467.64726732 -412.76773196 496.84707239 -406.2331543 526.13574219 C-406.07015839 526.87079987 -405.90716248 527.60585754 -405.73922729 528.3631897 C-403.62110931 537.83197779 -401.12807971 547.14374679 -398.31689453 556.42993164 C-397.20911325 560.13220982 -396.17862611 563.84291031 -395.1706543 567.57324219 C-393.64352764 572.94897432 -391.75508637 578.03413381 -389.5144043 583.15136719 C-388.40192067 585.72560255 -387.35729609 588.30806188 -386.33081055 590.91699219 C-367.07579682 639.25706873 -339.47862802 683.05158881 -304.1706543 721.26074219 C-302.87901367 722.68966797 -302.87901367 722.68966797 -301.5612793 724.14746094 C-292.91334418 733.70683946 -284.0053945 742.90631755 -274.1706543 751.26074219 C-272.68178711 752.56591797 -272.68178711 752.56591797 -271.1628418 753.89746094 C-250.6669912 771.81339335 -228.47452738 787.24257368 -205.1706543 801.26074219 C-204.53595215 801.64713867 -203.90125 802.03353516 -203.24731445 802.43164062 C-182.87581646 814.79735471 -160.43480472 824.46346179 -138.04956055 832.57421875 C-136.30305571 833.21236475 -134.56459056 833.8723973 -132.8269043 834.53417969 C-122.98855137 838.21184971 -112.92329598 840.89134198 -102.77514648 843.56738281 C-100.42524222 844.19296662 -98.08218225 844.8378961 -95.7409668 845.49511719 C-89.97609546 847.1037216 -84.40917289 848.5161603 -78.43237305 848.99121094 C-75.67061558 849.32033229 -73.05832073 849.96840067 -70.3581543 850.63574219 C-64.7814762 851.96661414 -59.21035678 852.96754695 -53.5456543 853.82324219 C-52.80210693 853.93780762 -52.05855957 854.05237305 -51.29248047 854.17041016 C-48.58867685 854.5667469 -45.8818936 854.9186041 -43.1706543 855.26074219 C-42.52373627 855.3447226 -41.87681824 855.428703 -41.21029663 855.51522827 C-29.12585346 857.05281798 -17.21367602 857.54831742 -5.03710938 857.46655273 C-2.23843182 857.44827665 0.55991133 857.44604444 3.35864258 857.44628906 C21.72978388 857.41307638 39.81944442 856.58052752 58.0168457 854.01074219 C58.8092868 853.90125244 59.60172791 853.7917627 60.41818237 853.67895508 C74.34008495 851.74983112 88.11768906 849.36868462 101.8293457 846.26074219 C102.68657227 846.07044434 103.54379883 845.88014648 104.42700195 845.68408203 C118.54663382 842.51152951 132.19362683 838.08093014 145.8293457 833.26074219 C146.86768555 832.89400391 147.90602539 832.52726563 148.97583008 832.14941406 C161.71439515 827.60838808 173.88726459 822.60191742 185.8293457 816.26074219 C187.59750507 815.38035129 189.36802307 814.50466622 191.1418457 813.63574219 C195.34490623 811.53073832 199.48015265 809.31834739 203.5949707 807.04589844 C206.05746182 805.68676989 208.52626218 804.34289028 211.0012207 803.00683594 C220.98464249 797.58331615 230.49453054 791.73215239 239.8293457 785.26074219 C240.68399414 784.679375 241.53864258 784.09800781 242.41918945 783.49902344 C255.10858884 774.7790202 267.2164371 765.36172086 278.8293457 755.26074219 C279.55379883 754.63683594 280.27825195 754.01292969 281.0246582 753.37011719 C282.9732732 751.68184346 284.90357078 749.97501582 286.8293457 748.26074219 C287.71493164 747.47957031 288.60051758 746.69839844 289.51293945 745.89355469 C290.46297852 745.04535156 291.41301758 744.19714844 292.3918457 743.32324219 C293.25938477 742.55109375 294.12692383 741.77894531 295.02075195 740.98339844 C297.21263434 738.85858338 299.18705728 736.74274555 301.1730957 734.43652344 C304.82904829 730.19322925 308.76118466 726.2959504 312.7668457 722.38574219 C317.92416051 717.29390399 322.78497494 712.18724044 327.1809082 706.40917969 C328.79262434 704.30860179 330.49399857 702.35111571 332.2668457 700.38574219 C350.74060476 679.51334016 366.01730064 653.95434858 378.8293457 629.26074219 C379.39395508 628.20628906 379.95856445 627.15183594 380.5402832 626.06542969 C391.5186781 605.1732809 399.88313293 582.77605256 406.8293457 560.26074219 C407.20188477 559.05675781 407.57442383 557.85277344 407.95825195 556.61230469 C408.76203855 553.88817439 409.52345781 551.15777186 410.25170898 548.41259766 C410.69441336 546.76340223 411.14794473 545.11710984 411.60620117 543.47216797 C415.98098535 527.75661589 419.29724433 512.18796344 421.45922852 496.01757812 C421.77988776 493.62913206 422.12157433 491.24564543 422.4777832 488.86230469 C424.85393006 472.43589815 425.03467551 456.01212935 425.0168457 439.44824219 C425.01624146 438.40994263 425.01563721 437.37164307 425.01501465 436.30187988 C424.96246035 402.98373763 421.54286798 370.71924391 413.8293457 338.26074219 C413.65886719 337.51115234 413.48838867 336.7615625 413.31274414 335.98925781 C410.60076963 324.11695587 406.70160053 312.64650964 402.7668457 301.13574219 C402.37455276 299.98507263 402.37455276 299.98507263 401.97433472 298.81115723 C398.75105384 289.38962791 395.35727427 280.20599506 390.8293457 271.32324219 C389.42206605 268.55819704 388.24273855 265.7924254 387.1496582 262.88964844 C384.44907052 256.08394306 381.08195429 249.6225013 377.7043457 243.13574219 C377.37197906 242.49489685 377.03961243 241.85405151 376.69717407 241.19378662 C371.84884293 231.86433178 366.81023247 222.73497087 360.97241211 213.98193359 C359.81383006 212.23737925 358.68501186 210.47619745 357.55981445 208.70996094 C344.9598935 189.13121585 330.14312632 171.04435196 314.3371582 153.98730469 C312.16931695 151.63036825 310.04934243 149.24473191 307.9543457 146.82324219 C303.19595294 141.35948767 297.96551679 136.53988836 292.56762695 131.71777344 C289.82170472 129.25388601 287.1070363 126.75840679 284.3918457 124.26074219 C279.55300401 119.86669652 274.60727824 115.65330146 269.49194336 111.58447266 C268.30129998 110.63650372 267.1138301 109.68454352 265.9284668 108.72998047 C254.02542596 99.161756 241.65528032 90.54186595 228.8293457 82.26074219 C227.97566406 81.70547852 227.12198242 81.15021484 226.24243164 80.578125 C216.99740073 74.57435157 207.80952611 68.97324652 197.8293457 64.26074219 C196.53960588 63.61232067 195.25197838 62.95968703 193.96606445 62.30371094 C186.96787752 58.73682331 179.98891996 55.34716263 172.6730957 52.46386719 C169.8293457 51.26074219 169.8293457 51.26074219 166.3605957 49.42871094 C160.43164581 46.42931051 154.11145992 44.44428075 147.8293457 42.32324219 C146.51907118 41.87727206 145.20885015 41.43114475 143.89868164 40.98486328 C140.21253152 39.73259914 136.5217213 38.49453857 132.8293457 37.26074219 C131.95987305 36.9695752 131.09040039 36.6784082 130.19458008 36.37841797 C121.94381827 33.63842617 113.63279627 31.38722303 105.14477539 29.51513672 C99.92538713 28.35678362 99.92538713 28.35678362 98.8293457 27.26074219 C95.99784935 26.74024653 93.17332027 26.26478283 90.3293457 25.82324219 C85.63122073 25.08818787 80.96905019 24.32331814 76.33325195 23.25683594 C67.93307928 21.34006096 59.37115464 20.33029723 50.8293457 19.26074219 C49.98146484 19.15197754 49.13358398 19.04321289 48.26000977 18.93115234 C-3.23074998 12.64716168 -63.48851088 15.86298239 -112.74633789 33.3984375 Z " fill="#FBFCFB" transform="translate(507.170654296875,74.7392578125)"/>
<path d="M0 0 C7.92962877 5.070727 13.26387035 11.76225434 15.984375 20.8359375 C18.08251778 33.22920458 17.13256999 46.05215132 10.08203125 56.59765625 C4.79340238 63.3954472 -3.17483153 68.38067394 -11.60546875 70.2265625 C-23.17915403 71.52956018 -33.00462629 70.2243562 -42.4296875 62.80859375 C-51.47536349 54.13798237 -54.77935412 43.96739194 -55.0546875 31.62109375 C-54.97456145 20.07886832 -50.76448182 11.82831503 -42.8203125 3.62109375 C-31.28116302 -6.88351129 -13.27514116 -7.49010258 0 0 Z " fill="#84B481" transform="translate(568.5546875,526.44140625)"/>
<path d="M0 0 C7.25652414 4.86532666 12.7096405 12.26749989 14.86328125 20.75 C15.18377603 23.81738713 15.24439585 26.85482516 15.23828125 29.9375 C15.23666992 30.77885498 15.23505859 31.62020996 15.23339844 32.48706055 C15.03738914 42.46912213 12.22810416 51.31474178 5.078125 58.55859375 C0.90912862 62.4223457 -2.78449886 64.86681152 -8.13671875 66.75 C-9.04679687 67.09675781 -9.956875 67.44351563 -10.89453125 67.80078125 C-19.35248028 70.27702416 -28.95198077 69.79603 -36.92578125 66.0078125 C-47.2411176 60.13937027 -51.97787678 53.10475628 -55.13671875 41.75 C-55.31847656 41.13253906 -55.50023437 40.51507813 -55.6875 39.87890625 C-58.07026394 28.58667713 -55.53245954 18.61355164 -50.13671875 8.75 C-38.23299133 -7.1456845 -16.61730999 -9.72127824 0 0 Z " fill="#79AF8A" transform="translate(472.13671875,442.25)"/>
<path d="M0 0 C3.1875 1.625 3.1875 1.625 5 4 C5.6711026 8.04443251 5.00501912 10.38650096 2.796875 13.70703125 C1.79516021 15.08573548 0.77855325 16.45370049 -0.25 17.8125 C-1.35974735 19.32915471 -2.46911183 20.84608962 -3.578125 22.36328125 C-4.14853516 23.13365723 -4.71894531 23.9040332 -5.30664062 24.69775391 C-7.92651814 28.25966927 -10.46096591 31.88025747 -13 35.5 C-14.00213055 36.92090706 -15.00473592 38.34147937 -16.0078125 39.76171875 C-16.50313477 40.46345215 -16.99845703 41.16518555 -17.50878906 41.88818359 C-18.98172821 43.97412394 -20.45558181 46.05941515 -21.9296875 48.14453125 C-22.91153663 49.53379884 -23.89330714 50.92312199 -24.875 52.3125 C-25.36194336 53.00166504 -25.84888672 53.69083008 -26.35058594 54.40087891 C-29.72067469 59.17535403 -33.07268309 63.9622194 -36.41894531 68.75341797 C-41.20819557 75.61034721 -46.01507435 82.44609076 -50.9609375 89.19140625 C-55.18547044 95.01025526 -59.30149249 100.90689766 -63.43994141 106.78710938 C-64.94961378 108.92852885 -66.46407721 111.06645973 -67.98046875 113.203125 C-73.29012257 120.6910084 -78.52761838 128.22050039 -83.6875 135.8125 C-96.18279421 154.18279421 -96.18279421 154.18279421 -100 158 C-105.08159811 158.52009645 -109.53851841 158.75997043 -114.125 156.375 C-116.50692533 153.35789458 -116.92776749 151.85541007 -117 148 C-115.65877611 145.14376203 -113.79093744 142.74572234 -111.875 140.25 C-111.33020996 139.51048096 -110.78541992 138.77096191 -110.22412109 138.0090332 C-109.07223171 136.44646019 -107.91336831 134.88900735 -106.74804688 133.33642578 C-103.9931031 129.65418947 -101.31259331 125.91900723 -98.625 122.1875 C-98.09076416 121.45015625 -97.55652832 120.7128125 -97.00610352 119.953125 C-92.27160372 113.41249339 -87.63949272 106.80258763 -83.02001953 100.18041992 C-79.70750272 95.43340316 -76.37539709 90.70249421 -73 86 C-63.65169298 72.96075685 -54.51054487 59.77882746 -45.4777832 46.51953125 C-42.07996399 41.54379845 -38.59621226 36.64610146 -35.01953125 31.796875 C-32.46775425 28.26288597 -30.01774411 24.66391756 -27.5625 21.0625 C-12.30464556 -1.25883262 -12.30464556 -1.25883262 0 0 Z " fill="#7EB386" transform="translate(556,438)"/>
<path d="M0 0 C4.21958218 1.95351027 7.14107779 4.48976125 9.30859375 8.6796875 C11.16619745 14.91367957 11.13936571 22.83477601 8.9375 29 C6.44350555 32.86166882 4.1129007 35.82844982 0 38 C-5.07937941 39.05284605 -8.82260857 38.59939927 -13.4375 36.25 C-18.40360821 31.88951474 -19.78331477 28.88810459 -20.2734375 22.35546875 C-20.6983115 9.88504401 -20.6983115 9.88504401 -17.8125 5.6875 C-12.11285174 0.24116944 -7.84475703 -1.10808767 0 0 Z " fill="#F9FBFA" transform="translate(457,455)"/>
<path d="M0 0 C4.25342103 2.14966063 6.49589443 5.17066504 8.9375 9.1875 C10.92138521 16.30614691 10.9473977 23.42407058 7.9921875 30.27734375 C6.04079834 33.66538555 3.49095826 36.25452087 0 38 C-5.05682748 38.74432817 -10.01594842 39.44111854 -14.3125 36.3203125 C-20.48773925 29.29597785 -20.42788193 23.08426255 -20 14 C-19.31946015 9.07254693 -17.42358439 5.63107436 -14 2 C-9.51245466 -0.99169689 -5.25438472 -0.82925345 0 0 Z " fill="#FBFCFA" transform="translate(555,540)"/>
<path d="M0 0 C3.5778519 1.1326533 4.89874391 2.60960065 7.09765625 5.6640625 C7.86107407 9.51023777 7.84129672 13.25375671 7.78515625 17.1640625 C7.81287109 18.19660156 7.84058594 19.22914063 7.86914062 20.29296875 C7.84555364 27.60493453 7.84555364 27.60493453 5.82104492 30.47192383 C3.35087834 32.61738087 1.21858638 33.63691492 -1.96484375 34.3515625 C-5.30913986 33.5688549 -6.7375611 32.33981373 -8.8527832 29.66772461 C-10.99397669 25.58008214 -10.5749155 21.10855442 -10.46484375 16.6015625 C-10.47580078 15.62123047 -10.48675781 14.64089844 -10.49804688 13.63085938 C-10.45316382 9.22334292 -10.32077582 6.39951624 -8.11328125 2.51953125 C-5.46800888 0.29955885 -3.41913205 0.06797479 0 0 Z " fill="#86B584" transform="translate(682.90234375,399.3359375)"/>
<path d="M0 0 C2.68670748 2.21593927 3.84034073 4.03522213 4.41137695 7.48583984 C4.61203401 10.50110493 4.64386186 13.47833032 4.625 16.5 C4.65722656 17.53253906 4.68945312 18.56507813 4.72265625 19.62890625 C4.73208087 26.93298856 4.73208087 26.93298856 2.74755859 29.82543945 C-0.07188563 32.32234631 -1.85730637 32.9926193 -5.625 33.1875 C-9.08816085 31.96898044 -10.27897439 31.03038462 -12.18847656 27.95483398 C-13.85543634 23.93938664 -13.61303325 19.72093574 -13.5625 15.4375 C-13.59827148 14.03854492 -13.59827148 14.03854492 -13.63476562 12.61132812 C-13.62488104 7.98863931 -13.51240085 5.69928678 -10.71875 1.88671875 C-6.59393685 -0.97575934 -4.93034889 -0.78259506 0 0 Z " fill="#93BC7C" transform="translate(686,554)"/>
<path d="M0 0 C0.7528125 -0.00128906 1.505625 -0.00257813 2.28125 -0.00390625 C5.3429298 0.77768454 6.50052735 2.14303503 8.5 4.5625 C9.01757812 7.04858398 9.01757812 7.04858398 9.03125 9.80859375 C9.03640625 10.81083984 9.0415625 11.81308594 9.046875 12.84570312 C9.03140625 13.88662109 9.0159375 14.92753906 9 16 C9.01546875 17.03705078 9.0309375 18.07410156 9.046875 19.14257812 C9.02348304 23.69523903 8.96677523 26.72721801 6.71875 30.75 C3.71226972 33.20599798 2.1405644 33.22581681 -1.59765625 32.99609375 C-4.48024213 32.33907726 -5.78336232 30.89712725 -7.5 28.5625 C-9.36905348 24.82439305 -8.77116522 20.36418822 -8.8125 16.25 C-8.84150391 15.29931641 -8.87050781 14.34863281 -8.90039062 13.36914062 C-8.93991654 9.01824917 -8.90334545 6.28942821 -6.76171875 2.4296875 C-4.24834058 0.35473972 -3.21612958 -0.09362021 0 0 Z " fill="#89B781" transform="translate(681.5,451.4375)"/>
<path d="M0 0 C2.6796875 1.3203125 2.6796875 1.3203125 5 4 C5.76205162 7.81995835 5.6971304 11.55448015 5.625 15.4375 C5.65400391 16.99307617 5.65400391 16.99307617 5.68359375 18.58007812 C5.65216444 23.47362212 5.61674989 26.15131887 2.68359375 30.1875 C-0.84256233 32.56906685 -2.82676416 32.68289314 -7 32 C-9.36497439 30.13291495 -10.66030715 28.67938569 -12 26 C-12.31877503 22.56973857 -12.32426215 19.13075474 -12.375 15.6875 C-12.41238281 14.73681641 -12.44976563 13.78613281 -12.48828125 12.80664062 C-12.54765965 8.08605766 -12.56094503 5.76250494 -9.6953125 1.8671875 C-6.14883722 -0.5896461 -4.23375264 -0.68042453 0 0 Z " fill="#8DB87F" transform="translate(685,503)"/>
<path d="M0 0 C2.6796875 1.3203125 2.6796875 1.3203125 5 4 C5.76205162 7.81995835 5.6971304 11.55448015 5.625 15.4375 C5.65400391 16.99307617 5.65400391 16.99307617 5.68359375 18.58007812 C5.652164 23.47368942 5.62112936 26.14882273 2.6796875 30.1796875 C0 32 0 32 -3.5 32.6875 C-7.27346305 31.94628404 -8.62179468 30.97007739 -10.96582031 27.97241211 C-13.03721492 24.02179902 -12.71581171 19.799489 -12.625 15.4375 C-12.65400391 14.03854492 -12.65400391 14.03854492 -12.68359375 12.61132812 C-12.65050428 7.96887577 -12.51462966 5.69137116 -9.6796875 1.8828125 C-6.14545286 -0.60042525 -4.2369663 -0.68094101 0 0 Z " fill="#99BF78" transform="translate(685,606)"/>
<path d="M0 0 C0.66 0.33 1.32 0.66 2 1 C-0.49565251 3.52516805 -2.99732451 6.04429373 -5.5 8.5625 C-6.19609375 9.26697266 -6.8921875 9.97144531 -7.609375 10.69726562 C-11.01452797 14.1181832 -14.44796205 17.43921812 -18.109375 20.5859375 C-21.91085614 23.86322128 -25.3543251 27.3705814 -28.75 31.0625 C-29.34055176 31.69937744 -29.93110352 32.33625488 -30.53955078 32.99243164 C-36.54021303 39.50690961 -42.29884205 46.22334888 -48 53 C-48 48.88358465 -45.83933232 47.07265407 -43.25 44.125 C-42.50508301 43.26334229 -42.50508301 43.26334229 -41.74511719 42.38427734 C-29.80803597 28.66224699 -17.35483792 14.92095639 -3.41796875 3.19921875 C-1.85892049 1.91444826 -1.85892049 1.91444826 0 0 Z " fill="#61B1BE" transform="translate(235,196)"/>
<path d="M0 0 C7.52562738 -0.02545425 15.05124356 -0.04291059 22.5769043 -0.05493164 C25.13452571 -0.05994563 27.69214427 -0.06675848 30.24975586 -0.07543945 C33.93604232 -0.08763382 37.62229072 -0.09325779 41.30859375 -0.09765625 C42.44332626 -0.10281754 43.57805878 -0.10797882 44.74717712 -0.11329651 C50.9191002 -0.11372797 56.88077806 0.18466799 63 1 C63 1.66 63 2.32 63 3 C56.71880905 3.09252163 50.50683627 3.10440187 44.25 2.5 C36.60020271 1.82749035 28.95813313 1.94679961 21.28417969 2.03710938 C14.13426759 2.09565984 7.11445283 1.71136589 0 1 C0 0.67 0 0.34 0 0 Z " fill="#7CB3B7" transform="translate(488,38)"/>
<path d="M0 0 C2.12043839 0.01006871 4.24088151 0.01918756 6.36132812 0.02734375 C11.4701727 0.04900576 16.57878123 0.08331188 21.6875 0.125 C21.6875 0.455 21.6875 0.785 21.6875 1.125 C20.73496338 1.15005615 19.78242676 1.1751123 18.80102539 1.20092773 C15.22816133 1.29591814 11.65545083 1.39590548 8.08276367 1.49731445 C6.54373801 1.54032019 5.00467509 1.58201529 3.46557617 1.62231445 C-4.51064065 1.83201051 -12.38544834 2.15749318 -20.3125 3.125 C-22.31211564 3.16420815 -24.31299364 3.16943347 -26.3125 3.125 C-30.77384693 3.06809506 -34.9786279 3.35218089 -39.375 4.1015625 C-41.8098674 4.13101654 -43.18971632 3.25645253 -45.3125 2.125 C-30.15689812 0.36946375 -15.24794819 -0.12832731 0 0 Z " fill="#81BBBC" transform="translate(512.3125,91.875)"/>
<path d="M0 0 C1.1059741 3.28823173 0.89627272 5.0871965 -0.3125 8.3125 C-1.31551803 11.08554984 -2.21390081 13.77539043 -3 16.625 C-4.06846525 20.23107022 -5.51939674 23.54525907 -7 27 C-7.70491267 29.32206525 -8.37212429 31.65593068 -9 34 C-9.66084583 36.33498858 -10.32811503 38.66816393 -11 41 C-11.23847656 41.86753906 -11.47695313 42.73507812 -11.72265625 43.62890625 C-11.97917969 44.53511719 -12.23570313 45.44132812 -12.5 46.375 C-12.7371875 47.22835937 -12.974375 48.08171875 -13.21875 48.9609375 C-14 51 -14 51 -16 52 C-15.27101872 46.55931048 -13.73450634 41.47893279 -12.125 36.25 C-11.86847656 35.40695312 -11.61195312 34.56390625 -11.34765625 33.6953125 C-10.8289548 31.99063539 -10.30836154 30.28653279 -9.78588867 28.58300781 C-8.98646935 25.95552835 -8.21013525 23.32181852 -7.43359375 20.6875 C-6.4188696 17.29933075 -5.30860772 14.01401353 -3.9375 10.75 C-2.47804422 7.20480858 -1.15537841 3.65869831 0 0 Z " fill="#75B4C1" transform="translate(70,338)"/>
<path d="M0 0 C0 3 0 3 -2.00024414 5.32495117 C-2.91926514 6.22189697 -3.83828613 7.11884277 -4.78515625 8.04296875 C-5.52601723 8.77390495 -5.52601723 8.77390495 -6.28184509 9.51960754 C-7.86847514 11.0828096 -9.46484129 12.63557809 -11.0625 14.1875 C-13.14056304 16.21876415 -15.21376101 18.25490773 -17.28515625 20.29296875 C-17.78624908 20.78320526 -18.28734192 21.27344177 -18.80361938 21.77853394 C-22.30434888 25.22984001 -25.53134491 28.82333684 -28.59545898 32.6652832 C-30 34 -30 34 -33 34 C-22.27199181 22.38590263 -11.24242378 11.11627886 0 0 Z " fill="#E9F0EE" transform="translate(215,191)"/>
<path d="M0 0 C0.66 0.33 1.32 0.66 2 1 C-3.74705863 7.8530218 -9.95040867 13.87954447 -16.6171875 19.83984375 C-19.16783488 22.15215195 -21.60663858 24.52685987 -24 27 C-24.66 26.67 -25.32 26.34 -26 26 C-17.33333333 17.33333333 -8.66666667 8.66666667 0 0 Z " fill="#C6D670" transform="translate(812,802)"/>
<path d="M0 0 C0 0.33 0 0.66 0 1 C-23.265 0.505 -23.265 0.505 -47 0 C-47 -0.33 -47 -0.66 -47 -1 C-42.2356577 -1.19472998 -37.47106231 -1.37301222 -32.70556641 -1.53710938 C-31.08984518 -1.59493992 -29.47426882 -1.65699871 -27.85888672 -1.72363281 C-18.31397987 -2.11418697 -9.39164263 -2.13404386 0 0 Z " fill="#87BFBC" transform="translate(550,75)"/>
<path d="M0 0 C0.66 0.33 1.32 0.66 2 1 C0.43910974 2.41844009 -1.1237889 3.83467025 -2.6875 5.25 C-3.55761719 6.03890625 -4.42773438 6.8278125 -5.32421875 7.640625 C-12.53642384 14 -12.53642384 14 -15 14 C-15 13.34 -15 12.68 -15 12 C-12.72247812 10.06924919 -10.43771937 8.24026611 -8.0625 6.4375 C-6.76142712 5.43657688 -5.46063154 4.43529318 -4.16015625 3.43359375 C-3.11730469 2.63050781 -2.07445312 1.82742187 -1 1 C-0.67 0.67 -0.34 0.34 0 0 Z " fill="#5FADBC" transform="translate(257,178)"/>
<path d="M0 0 C0.66 0.33 1.32 0.66 2 1 C-3.05216018 5.71993196 -7.82601539 9.84732701 -14 13 C-12.6351424 8.90542721 -9.78245715 7.28332715 -6.4375 4.8125 C-5.82197266 4.34908203 -5.20644531 3.88566406 -4.57226562 3.40820312 C-3.05294435 2.26576775 -1.52708373 1.13203843 0 0 Z " fill="#64AEC3" transform="translate(227,133)"/>
<path d="M0 0 C0.66 0.33 1.32 0.66 2 1 C-2.29 5.29 -6.58 9.58 -11 14 C-11 9.40845608 -8.09282279 7.18698368 -5 4 C-3.3719908 2.61973133 -1.71956118 1.26438322 0 0 Z " fill="#A2C591" transform="translate(770,478)"/>
<path d="M0 0 C0 4.33174693 -2.65822583 6.22353653 -5.5 9.1875 C-6.28697266 10.02571289 -6.28697266 10.02571289 -7.08984375 10.88085938 C-8.38661613 12.26015364 -9.69246259 13.63090644 -11 15 C-11 10.66825307 -8.34177417 8.77646347 -5.5 5.8125 C-4.97535156 5.25369141 -4.45070312 4.69488281 -3.91015625 4.11914062 C-2.61338387 2.73984636 -1.30753741 1.36909356 0 0 Z " fill="#66B0C4" transform="translate(159,196)"/>
<path d="M0 0 C0.66 0.33 1.32 0.66 2 1 C-6.261959 9.44646925 -6.261959 9.44646925 -11 13 C-11.66 12.67 -12.32 12.34 -13 12 C-8.71 8.04 -4.42 4.08 0 0 Z " fill="#6CB1C5" transform="translate(209,147)"/>
<path d="M0 0 C0.66 0.33 1.32 0.66 2 1 C1.31292969 1.40992187 0.62585938 1.81984375 -0.08203125 2.2421875 C-1.43361328 3.05042969 -1.43361328 3.05042969 -2.8125 3.875 C-4.15248047 4.67550781 -4.15248047 4.67550781 -5.51953125 5.4921875 C-7.37294724 6.61883092 -9.19529917 7.79686611 -11 9 C-13.1875 8.625 -13.1875 8.625 -15 8 C-12.54665445 6.63603538 -10.08808766 5.28365831 -7.625 3.9375 C-6.92632812 3.54755859 -6.22765625 3.15761719 -5.5078125 2.75585938 C-3.70389816 1.77584822 -1.85416518 0.88124929 0 0 Z " fill="#78B5C5" transform="translate(303,86)"/>
<path d="M0 0 C1.55305042 4.65915126 -0.10445377 8.6361405 -1.4375 13.25 C-1.68371094 14.12140625 -1.92992187 14.9928125 -2.18359375 15.890625 C-3 18 -3 18 -5 19 C-4.35731596 14.54856736 -3.29333357 10.41118353 -1.9375 6.125 C-1.57527344 4.97257812 -1.21304688 3.82015625 -0.83984375 2.6328125 C-0.42412109 1.32957031 -0.42412109 1.32957031 0 0 Z " fill="#82BAC3" transform="translate(59,371)"/>
<path d="M0 0 C-0.33 0.66 -0.66 1.32 -1 2 C-3.65234375 2.37890625 -3.65234375 2.37890625 -6.9375 2.5625 C-11.12248797 2.69515503 -11.12248797 2.69515503 -15 4 C-17.125 3.0625 -17.125 3.0625 -19 2 C-13.4734994 -0.7632503 -6.04219753 -0.10985814 0 0 Z " fill="#71AEBB" transform="translate(455,42)"/>
<path d="M0 0 C0.33 0.99 0.66 1.98 1 3 C-0.36328125 5.4453125 -0.36328125 5.4453125 -2.3125 8.125 C-3.26576172 9.45917969 -3.26576172 9.45917969 -4.23828125 10.8203125 C-6 13 -6 13 -8 14 C-6.6744419 10.37723685 -5.05653045 7.36494652 -2.875 4.1875 C-2.33617188 3.39730469 -1.79734375 2.60710937 -1.2421875 1.79296875 C-0.83226563 1.20128906 -0.42234375 0.60960937 0 0 Z " fill="#6CB3C6" transform="translate(122,242)"/>
<path d="M0 0 C-5.66748157 2.83374078 -10.69732561 3.63223832 -17 4 C-14.22246623 2.55441992 -11.45460092 1.34964587 -8.5 0.3125 C-7.7471875 0.04050781 -6.994375 -0.23148437 -6.21875 -0.51171875 C-3.76402507 -1.0519311 -2.35576662 -0.79774824 0 0 Z " fill="#76B5C0" transform="translate(399,109)"/>
<path d="M0 0 C-9.41002278 3.25968109 -9.41002278 3.25968109 -14 4 C-14.33 3.34 -14.66 2.68 -15 2 C-13.25364835 1.46706165 -11.50272348 0.94909337 -9.75 0.4375 C-8.77546875 0.14746094 -7.8009375 -0.14257812 -6.796875 -0.44140625 C-4.03756068 -0.99249836 -2.6087176 -0.93789609 0 0 Z " fill="#7BB5C4" transform="translate(407,51)"/>
<path d="M0 0 C1 3 1 3 0.00390625 5.04296875 C-0.47175781 5.75066406 -0.94742187 6.45835937 -1.4375 7.1875 C-1.91058594 7.90292969 -2.38367188 8.61835937 -2.87109375 9.35546875 C-3.24363281 9.89816406 -3.61617188 10.44085937 -4 11 C-4.99 10.67 -5.98 10.34 -7 10 C-3.535 5.05 -3.535 5.05 0 0 Z " fill="#8DC094" transform="translate(470,542)"/>
<path d="M0 0 C0.66 0.33 1.32 0.66 2 1 C0.90653119 2.34212062 -0.2001575 3.67347975 -1.3125 5 C-2.23482422 6.11375 -2.23482422 6.11375 -3.17578125 7.25 C-5 9 -5 9 -8 9 C-5.36 6.03 -2.72 3.06 0 0 Z " fill="#DFE9EB" transform="translate(190,216)"/>
<path d="M0 0 C-1.24735567 0.6509259 -2.49801832 1.29551669 -3.75 1.9375 C-4.44609375 2.29714844 -5.1421875 2.65679687 -5.859375 3.02734375 C-7.90224433 3.95558182 -9.81115376 4.53166578 -12 5 C-12 4.34 -12 3.68 -12 3 C-10.5682384 2.30062798 -9.12932968 1.61587282 -7.6875 0.9375 C-6.48673828 0.36322266 -6.48673828 0.36322266 -5.26171875 -0.22265625 C-3 -1 -3 -1 0 0 Z " fill="#69B1BD" transform="translate(344,129)"/>
<path d="M0 0 C0.33 0.99 0.66 1.98 1 3 C-2.21311475 8.73770492 -2.21311475 8.73770492 -6 10 C-4.34832443 6.4213696 -2.21713508 3.25179812 0 0 Z " fill="#8BBF93" transform="translate(483,524)"/>
<path d="M0 0 C0 0.33 0 0.66 0 1 C-1.0725 1.28875 -2.145 1.5775 -3.25 1.875 C-6.09400364 2.72820109 -8.43508983 3.5636503 -11 5 C-8.45499142 -0.63537615 -5.97208347 -0.11059414 0 0 Z " fill="#9EC495" transform="translate(685,503)"/>
<path d="M0 0 C0 0.33 0 0.66 0 1 C-1.41199578 1.39222105 -2.82992764 1.76311059 -4.25 2.125 C-5.03890625 2.33382812 -5.8278125 2.54265625 -6.640625 2.7578125 C-9.4203071 3.04314411 -10.65887549 2.44977894 -13 1 C-8.59085217 -0.10228696 -4.51617599 -0.07654536 0 0 Z " fill="#83BCC1" transform="translate(465,95)"/>
<path d="M0 0 C2 4 2 4 1.125 7.75 C0.75375 8.8225 0.3825 9.895 0 11 C-0.33 11 -0.66 11 -1 11 C-0.67 7.37 -0.34 3.74 0 0 Z " fill="#62A7B0" transform="translate(46,425)"/>
<path d="M0 0 C-3.79541663 2.21399303 -7.75629421 3.00980198 -12 4 C-11.67 3.01 -11.34 2.02 -11 1 C-7.27569643 0.30710631 -3.78916254 -0.11144596 0 0 Z " fill="#6CABBB" transform="translate(428,46)"/>
</svg>
